<svg width="100" height="100" viewBox="0 0 100 100" fill="none" xmlns="http://www.w3.org/2000/svg">
<rect x="10" y="10" width="80" height="80" rx="15" fill="#3A4494"/>
<text x="50" y="45" font-family="serif" font-size="32" font-weight="bold" fill="white" text-anchor="middle" dominant-baseline="middle">A</text>
<g fill="white" transform="translate(35, 58)">
<ellipse cx="15" cy="4" rx="15" ry="4"/>
<path d="M30 8V15C30 17.2 23.3 19 15 19C6.7 19 0 17.2 0 15V8C0 10.2 6.7 12 15 12C23.3 12 30 10.2 30 8Z"/>
<path d="M30 15V22C30 24.2 23.3 26 15 26C6.7 26 0 24.2 0 22V15C0 17.2 6.7 19 15 19C23.3 19 30 17.2 30 15Z"/>
</g>
</svg> 